<svg xmlns="http://www.w3.org/2000/svg" viewBox="0 0 651.97 499.22"><defs><style>.cls-1{fill:#ebe9e3;}.cls-2{fill:#c2dac9;}.cls-3{fill:#009880;}.cls-4{fill:#a9d4af;opacity:0.7;}.cls-5{fill:#fbab41;}.cls-6{fill:#365baa;}.cls-7{fill:#1c2954;}.cls-8{fill:#051835;}.cls-9{fill:#f15b49;}.cls-10{fill:#da8457;}.cls-11{fill:#bf684b;}.cls-12{fill:#ececeb;}.cls-13{fill:#d2d6da;}.cls-14{fill:none;stroke:#bcbec0;stroke-linecap:round;stroke-linejoin:round;stroke-width:0.5px;stroke-dasharray:1 2;}.cls-15{fill:#d0e184;}.cls-16{fill:#a9b74e;}.cls-17{fill:#fbde79;}.cls-18{fill:#f9f4a5;}.cls-19{fill:#ede291;}.cls-20{fill:#86caaa;}.cls-21{fill:#05635a;}.cls-22{fill:#030303;}.cls-23{fill:#d1a87d;}.cls-24{fill:#e5be91;}.cls-25{fill:#070707;}.cls-26{fill:#242322;}.cls-27{fill:#eaab42;}.cls-28{fill:#fabe53;}.cls-29{fill:#e5bc91;}.cls-30{fill:#4f5da9;}.cls-31{fill:#324393;}.cls-32{fill:#4857a0;}.cls-33{fill:#270e13;}.cls-34{fill:#21201f;}</style></defs><title>message sent</title><g id="background"><path class="cls-1" d="M201,495.4s-74.56-15.29-74.58-81.54c0-80,88.73-93.05,118-149.68S295.6,152.06,378.5,130.4c67.38-17.6,169.73,27.37,174,104.9s28.5,103,85,135.43,47.53,124.28-22,126.13Z" transform="translate(-126.46 -19.33)"/><path class="cls-2" d="M536.12,439.65a.84.84,0,0,1,0-.42c1.86-13-2.11-25.78-10.39-34.16a.52.52,0,0,1-.17-.19l-.18-.18a.77.77,0,0,1,.13-1.18c.95-13.68-3.94-26.79-13.19-34.79a.89.89,0,0,1-.28-.61.76.76,0,0,1-.22-.61c.12-19.08-11.48-28.6-11.53-29.27-1.43-21.62-14.5-30.44-14.47-31.16.33-9.49-3.94-18.07-11-22.16a.6.6,0,0,1-.51-.47.79.79,0,0,1,0-.46c.16-6.67-3.47-12.61-8.77-14.35-5.29,1.74-8.92,7.68-8.77,14.35a.79.79,0,0,1,0,.46.61.61,0,0,1-.51.47c-7,4.09-11.29,12.67-11,22.16,0,.72-12.32,8.27-14.48,31.16-.06.67-12,9.71-11.52,29.27a.76.76,0,0,1-.23.61.85.85,0,0,1-.28.61c-9.25,8-14.14,21.11-13.18,34.79a.77.77,0,0,1,.13,1.18l-.18.18a.55.55,0,0,1-.18.19c-8.27,8.38-12.24,21.19-10.38,34.16a1,1,0,0,1,0,.42Z" transform="translate(-126.46 -19.33)"/><path class="cls-2" d="M402.27,424a1.1,1.1,0,0,1,0-.45c2-13.88-2.25-27.59-11.11-36.55a.61.61,0,0,1-.19-.2l-.18-.19a.82.82,0,0,1,.13-1.26c1-14.64-4.21-28.67-14.1-37.23a.85.85,0,0,1-.3-.66.81.81,0,0,1-.25-.64c.14-20.41-12.27-30.6-12.32-31.32-1.53-23.13-15.52-32.56-15.5-33.34.36-10.15-4.21-19.32-11.71-23.7a.64.64,0,0,1-.55-.51.79.79,0,0,1,0-.48c.17-7.14-3.72-13.5-9.38-15.36-5.67,1.86-9.55,8.22-9.39,15.36a.72.72,0,0,1,0,.48.64.64,0,0,1-.54.51c-7.51,4.38-12.08,13.55-11.72,23.7,0,.78-13.18,8.85-15.49,33.34-.07.72-12.8,10.39-12.33,31.32a.77.77,0,0,1-.24.64.93.93,0,0,1-.3.66c-9.9,8.56-15.13,22.59-14.11,37.23a.83.83,0,0,1,.14,1.26l-.19.19a.52.52,0,0,1-.19.2c-8.85,9-13.1,22.67-11.11,36.55a1,1,0,0,1,0,.45Z" transform="translate(-126.46 -19.33)"/><path class="cls-3" d="M444.3,413.11c2-2.06,3.28-3.44,3.13-3.61s-1.65.93-3.93,2.78c-1.07,1-2.36,2.15-3.69,3.49-1.05,1.17-2.24,2.37-3.35,3.71a12.39,12.39,0,0,0-.16-2,12,12,0,0,0-1.29-3.33c-.7-1.25-1.6-2.16-2-1.95s-.11,1.39.11,2.65.46,2.62.55,3.13.44,1.89.66,3.19c.05.24.1.48.14.71-1.15,1.48-2.22,3-3.22,4.54a7.82,7.82,0,0,0-.15-1,8.2,8.2,0,0,0-1.43-2.75c-.76-1-1.71-1.57-2-1.29s0,1.22.28,2.23.51,2.07.61,2.47.44,1.47.65,2.52c.07.28.12.56.18.82-.22.36-.46.74-.67,1.1-.63,1.19-1.24,2.29-1.77,3.32h0a8.27,8.27,0,0,0-1.59-2.83c-.83-1-1.85-1.58-2.16-1.28s.12,1.25.46,2.29.64,2.14.75,2.56a26.88,26.88,0,0,1,.74,2.64c0,.1.06.21.08.31l-.41.9a82.5,82.5,0,0,0-2.72,7.8,6.17,6.17,0,0,0-.48-.77c-.61-.87-1.41-1.42-1.76-1.17s-.18,1.1-.05,2c.16,1.08.28,1.86.32,2.13s.32,1.24.5,2.13c.06.27.12.53.18.77-.13.56-.26,1.13-.36,1.71-.36,2.14-.78,4.33-.95,6.49a67.77,67.77,0,0,0-.24,11.46c.3,3,.62,4.92.83,4.9s.29-2,.33-4.93a96,96,0,0,1,1-11.17c.27-2.1.77-4.21,1.2-6.28.17-.79.39-1.55.59-2.3a12.3,12.3,0,0,1,1.64-.81,10.48,10.48,0,0,1,1.82-.77c.78-.28,1.63-.33,1.79-.74s-.68-1.08-1.85-1.25a5.37,5.37,0,0,0-2.43.19c0-.06,0-.12,0-.18,1.13-3.63,2.35-6.57,3-8.16l.41-.94.53-.28a10.22,10.22,0,0,1,2.14-.76,9.79,9.79,0,0,1,2.27-.48c1-.12,1.9.08,2.15-.3s-.56-1.27-1.86-1.67a6.12,6.12,0,0,0-3.3-.1l-.37.14c.5-1,1.08-2.13,1.66-3.33.36-.65.75-1.33,1.14-2l.29-.09a18.09,18.09,0,0,1,2.38-.51,17.77,17.77,0,0,1,2.44-.43c1-.13,2-.07,2.2-.48s-.73-1.14-2-1.49a7.2,7.2,0,0,0-3.19-.2,2.26,2.26,0,0,0-.3.08c.9-1.47,1.88-2.92,2.91-4.32.82-.16,1.66-.22,2-.26a19.68,19.68,0,0,1,2.1-.31c.87-.1,1.75-.06,1.94-.46s-.55-1.11-1.62-1.5a6.31,6.31,0,0,0-2.25-.39c.7-.88,1.41-1.72,2.05-2.55C442.2,415.45,443.36,414.21,444.3,413.11Z" transform="translate(-126.46 -19.33)"/><path class="cls-3" d="M398.39,433.63c.31-1.24.77-2.48.93-2.95a31.16,31.16,0,0,1,1-3c.46-1.2,1-2.26.71-2.57s-1.44.38-2.39,1.52a9.53,9.53,0,0,0-1.17,1.67c-.36-1.93-.72-3.62-1-4.94.38-.2.32-1.59.25-3.06a28.85,28.85,0,0,1,0-3.65,12.67,12.67,0,0,1,.52-3.33c.37-1.3,1.15-2.34.9-2.69s-1.7.31-2.67,1.8a8.37,8.37,0,0,0-1.21,2.85c-.06-.2-.12-.4-.19-.6a11.77,11.77,0,0,0-.15-2.62,20.24,20.24,0,0,1-.16-3.52,9.34,9.34,0,0,1,.5-3.16c.4-1.23,1.28-2.12,1.09-2.51-.1-.18-.51-.19-1.07.05a4.83,4.83,0,0,0-1.74,1.48,7.13,7.13,0,0,0-1.23,2.69q-.62-1.51-1.29-3a7,7,0,0,1-.11-1.17,8.29,8.29,0,0,1,.24-2.32,8.73,8.73,0,0,1,.63-2.18c.34-.88,1-1.58.79-2s-1.39-.19-2.36.77a5.76,5.76,0,0,0-1.48,2.26c-.62-1.15-1.26-2.26-1.84-3.31-1-1.64-2-3.07-2.81-4.3-1.8-2.36-3-3.8-3.2-3.67s.73,1.79,2.23,4.29c.66,1.3,1.52,2.79,2.37,4.46.65,1.4,1.4,2.88,2.08,4.44a3.23,3.23,0,0,0-.57-.17,5.53,5.53,0,0,0-2.95.3c-1.13.42-1.82,1.26-1.58,1.62s1.09.23,2,.32a11.41,11.41,0,0,1,2,.35,11.19,11.19,0,0,1,2.06.52l.37.14c.53,1.3,1,2.61,1.49,3.92a6.34,6.34,0,0,0-2.73-.58,4.09,4.09,0,0,0-2,.54c-.47.3-.66.62-.57.81.21.38,1.3.23,2.35.62a8.45,8.45,0,0,1,2.42,1.32,17.92,17.92,0,0,1,2,1.63c.13.4.27.82.39,1.21.47,1.55.87,3,1.21,4.28a7.37,7.37,0,0,0-2.08-.68c-1.38-.27-2.6,0-2.61.46s1,.82,2,1.41A17.11,17.11,0,0,1,392,421c.26.21.88.65,1.51,1.21l0,.12c.32,1.42.92,3.85,1.54,6.83a8.78,8.78,0,0,0-2.31-1.5c-1.37-.64-2.73-.67-2.84-.26s.88,1.06,1.78,1.93a17.66,17.66,0,0,1,2,2.26,17.08,17.08,0,0,1,1.85,2.51c.24.38.44.76.63,1.1.48,2.71,1,5.55,1.35,8.33,1.28,8.55,2.14,16.3,2.6,16.26s.22-7.83-.63-16.5C399.28,440.07,398.85,436.73,398.39,433.63Z" transform="translate(-126.46 -19.33)"/><path class="cls-4" d="M650.75,495.07a35.83,35.83,0,0,0-23.93-53.51,32.11,32.11,0,0,0-22.25-27.27,90.09,90.09,0,0,0-15.86-27.41A25.8,25.8,0,0,0,563,362.59a26.37,26.37,0,0,0-5.37.56A90,90,0,0,0,434,418a48.53,48.53,0,0,0-15.24,77.07Z" transform="translate(-126.46 -19.33)"/><path class="cls-4" d="M163.7,495.07H418.32a56.94,56.94,0,0,0-34.72-84.39,37.47,37.47,0,0,0-12.53-16.79,42.51,42.51,0,0,0,.75-7.87,41.92,41.92,0,0,0-57.16-39,100.89,100.89,0,0,0-120.28,37.14A37.37,37.37,0,0,0,174.6,430.6a61.13,61.13,0,0,0-10.9,64.47Z" transform="translate(-126.46 -19.33)"/><path class="cls-1" d="M657.67,502.64a9,9,0,0,0-6.92-7.54H552.89Q543.14,495,533,495t-19.92.13H283.58q-9.75-.14-19.92-.13t-19.92.13h-80s-10.94-1.32-18.61,6.31h0c-9.24,1.6-14.46,3.42-14.46,5.35,0,6.51,59.56,11.79,133,11.79s133-5.28,133-11.79v0l3.28,0a.13.13,0,0,0,0,.06c0,6.51,59.55,11.79,133,11.79s133-5.28,133-11.79C666,505.31,663.05,503.92,657.67,502.64Z" transform="translate(-126.46 -19.33)"/><path class="cls-5" d="M451.73,167.09H366.11v78.65H479.58v-50C479.58,179.92,467.11,167.09,451.73,167.09Z" transform="translate(-126.46 -19.33)"/><path class="cls-6" d="M363.42,167.09c-17.19,0-31.12,12.83-31.12,28.67v50h62.25v-50C394.55,179.92,380.62,167.09,363.42,167.09Z" transform="translate(-126.46 -19.33)"/><path class="cls-7" d="M363.42,168.91c-16.19,0-29.32,12.24-29.32,27.34v47.66h58.64V196.25C392.74,181.15,379.62,168.91,363.42,168.91Z" transform="translate(-126.46 -19.33)"/><path class="cls-8" d="M363.42,168.91c-16.19,0-29.32,12.24-29.32,27.34h58.64C392.74,181.15,379.62,168.91,363.42,168.91Z" transform="translate(-126.46 -19.33)"/><path class="cls-7" d="M411.52,195.76a3.54,3.54,0,1,1-3.53-3.53A3.53,3.53,0,0,1,411.52,195.76Z" transform="translate(-126.46 -19.33)"/><path class="cls-9" d="M409.49,195.76a1.51,1.51,0,1,1-1.5-1.5A1.5,1.5,0,0,1,409.49,195.76Z" transform="translate(-126.46 -19.33)"/><rect class="cls-7" x="409.62" y="152.82" width="2.13" height="41.06" transform="translate(-103.37 -66.16) rotate(6.71)"/><polygon class="cls-9" points="285.57 133.5 296.85 134.83 294.39 138.35 295.35 141.16 284.38 143.62 285.57 133.5"/><rect class="cls-10" x="266.29" y="226.4" width="86.84" height="2.68"/><rect class="cls-10" x="286.67" y="226.4" width="8.83" height="249.33"/><rect class="cls-11" x="281.37" y="226.4" width="5.29" height="249.33"/><polygon class="cls-11" points="286.67 232.18 295.5 238 295.5 229.09 286.67 229.09 286.67 232.18"/><path class="cls-9" d="M364.77,169c-.45,0-.89-.07-1.35-.07-16.19,0-29.32,12.24-29.32,27.34v47.66h2.69V196.25C336.79,181.58,349.2,169.64,364.77,169Z" transform="translate(-126.46 -19.33)"/><path class="cls-7" d="M363.42,315.55c-16.19,0-29.32-12.05-29.32-26.91V241.72h58.64v46.92C392.74,303.5,379.62,315.55,363.42,315.55Z" transform="translate(-126.46 -19.33)"/><path class="cls-8" d="M334.1,288.64a26.12,26.12,0,0,0,11.38,21.24c2-54.88,47.26-68.16,47.26-68.16H334.1Z" transform="translate(-126.46 -19.33)"/><path class="cls-9" d="M392.74,241.72v46.92c0,14.58-12.64,26.42-28.41,26.86.3,0,.6.05.9.05,16.2,0,29.32-12.05,29.32-26.91V241.72Z" transform="translate(-126.46 -19.33)"/><rect class="cls-9" x="270.51" y="219.83" width="80.02" height="2.56"/><rect class="cls-9" x="268.09" y="175.92" width="85.03" height="1"/><path class="cls-9" d="M467.06,221.86H397V237h80v-4.72C477,221.69,467.06,221.86,467.06,221.86Z" transform="translate(-126.46 -19.33)"/><path class="cls-12" d="M446.31,170.48s22.28-.35,27.77,18.87C474.08,189.35,473.39,170.13,446.31,170.48Z" transform="translate(-126.46 -19.33)"/><rect class="cls-12" x="297.48" y="104.06" width="51.27" height="34.04" transform="translate(-147.5 126.69) rotate(-24.69)"/><path class="cls-9" d="M322.72,117.35a1.2,1.2,0,0,1-2.18,1,1.2,1.2,0,0,1,2.18-1Z" transform="translate(-126.46 -19.33)"/><path class="cls-13" d="M292.71,116.33a57.7,57.7,0,0,0,30.11,4.1s-16.3,5-28.36-.3Z" transform="translate(-126.46 -19.33)"/><path class="cls-13" d="M339.3,94.91a57.65,57.65,0,0,1-16.48,25.52s14.4-9.11,18.23-21.72Z" transform="translate(-126.46 -19.33)"/><rect class="cls-12" x="345.57" y="86.32" width="51.28" height="34.04" transform="translate(-109.72 -67.08) rotate(7.53)"/><path class="cls-9" d="M372.86,100a1.2,1.2,0,1,1-2.37-.31,1.18,1.18,0,0,1,1.34-1A1.21,1.21,0,0,1,372.86,100Z" transform="translate(-126.46 -19.33)"/><path class="cls-13" d="M348,83.11a57.65,57.65,0,0,0,23.28,19.52s-16.46-4.45-23.83-15.37Z" transform="translate(-126.46 -19.33)"/><path class="cls-13" d="M398.85,89.82a57.61,57.61,0,0,1-27.55,12.81s17.05,0,27-8.65Z" transform="translate(-126.46 -19.33)"/><polygon class="cls-13" points="223.3 98.34 219.37 80.34 218.4 87.67 223.3 98.34"/><polygon class="cls-9" points="218.67 132.51 224.68 129.03 227.29 144.29 218.67 132.51"/><polygon class="cls-9" points="236.22 143.28 234.35 121.94 240.91 120.67 236.22 143.28"/><path class="cls-14" d="M685,107.67c-59,10.18-98-10.21-110.47-30.19-6.38-10.2-12.57-24.29-4.18-39,5-8.86,20.7-13.84,33.87-12.73,30.07,2.55,37.17,22.06,25.5,36.48C612.11,84,544.93,83.77,488,67c-51.06-15-49.76-37.89-102-46.37-4-.66-56.13-6.19-83.62,16.39-14.73,12.1-23,31.56-6.12,45,12.87,10.19,33.68,10.46,45,2,15.47-11.59,12.3-26.69-6.28-35.06-22.66-10.21-67.8,5.15-89.47,24.32-50.79,44.9-12.12,139.17,86.13,183.1" transform="translate(-126.46 -19.33)"/><polygon class="cls-15" points="651.97 42.31 551.97 82.06 561.08 84.29 651.97 42.31"/><polygon class="cls-16" points="559.97 84.81 559.97 83.31 651.97 42.31 559.97 84.81"/><polygon class="cls-17" points="552.35 52.93 563.28 82.32 583.44 61.68 552.35 52.93"/><polyline class="cls-17" points="587.64 60.99 607.47 36.68 615.93 66.21"/><polygon class="cls-18" points="615.93 66.21 584.72 57.94 563.28 82.32 615.93 66.21"/><polygon class="cls-18" points="552.35 52.93 586.85 62.68 607.47 36.68 552.35 52.93"/><polygon class="cls-19" points="552.35 52.93 586.85 62.31 607.19 37.05 587.64 63.56 552.35 52.93"/><polygon class="cls-15" points="559.97 84.81 557.22 104.31 651.97 42.31 559.97 84.81"/><polygon class="cls-16" points="567.38 97.66 651.97 42.31 572.22 104.31 567.38 97.66"/><polygon class="cls-15" points="166.57 213.63 266.29 184.55 266.29 187.7 264 190.61 166.57 213.63"/><polygon class="cls-16" points="265.19 190.33 264.71 189.71 166.57 213.63 265.19 190.33"/><polygon class="cls-17" points="251.53 160.54 261.06 190.41 232.46 186.6 251.53 160.54"/><polyline class="cls-17" points="228.73 188.65 198.13 181.75 209.68 210.21"/><polygon class="cls-18" points="209.68 210.21 229.14 184.45 261.06 190.41 209.68 210.21"/><polygon class="cls-18" points="251.53 160.54 230.39 189.49 198.13 181.75 251.53 160.54"/><polygon class="cls-19" points="251.53 160.54 230.16 189.2 198.57 181.87 230.31 190.67 251.53 160.54"/><polygon class="cls-15" points="265.19 190.33 266.29 191.38 266.29 205.1 166.57 213.63 265.19 190.33"/><polygon class="cls-16" points="266.29 205.1 166.57 213.63 266.29 213.24 266.29 205.1"/><path class="cls-20" d="M404.33,495.07s-9.87-75.85-3.19-99.56c0,0,14.54,44.93,12.74,99.55Z" transform="translate(-126.46 -19.33)"/><path class="cls-20" d="M400.35,455.7a173.35,173.35,0,0,1,8.42,39.36h0c3.27-21-8.82-44.85-8.82-44.86C400.07,452.05,400.21,453.88,400.35,455.7Z" transform="translate(-126.46 -19.33)"/><path class="cls-20" d="M412.15,495.06h1.73c.16-5,.19-9.94.1-14.76A75.2,75.2,0,0,0,412.15,495.06Z" transform="translate(-126.46 -19.33)"/><path class="cls-20" d="M423.9,495.07s3.48-15.84,26.8-22.44c0,0-4.63,16.75-15.11,22.43Z" transform="translate(-126.46 -19.33)"/><path class="cls-20" d="M396.69,495.06s-8.86-19.79-34.25-22.43c0,0,5.13,17.92,23.3,22.44Z" transform="translate(-126.46 -19.33)"/><path class="cls-20" d="M423.9,495.06h2.5c5.83-3.81,9.8-15.76,9.83-15.83C425.83,486.4,423.91,495,423.9,495.06Z" transform="translate(-126.46 -19.33)"/><path class="cls-20" d="M413.92,495.07S410.11,458,444.67,430c0,0,.51,36.17-20.77,65.05Z" transform="translate(-126.46 -19.33)"/><path class="cls-20" d="M373.41,475.08c.13.1,17.59,14.09,23.28,20A41.68,41.68,0,0,0,373.41,475.08Z" transform="translate(-126.46 -19.33)"/><path class="cls-20" d="M394.38,495.07s-16.15-36.73-14.52-75.64c0,0,23.42,21.69,28.91,75.64Z" transform="translate(-126.46 -19.33)"/><path class="cls-21" d="M397.45,448l.55,4.5s9.33,25.13,9.33,36.13S409.45,463,397.45,448Z" transform="translate(-126.46 -19.33)"/><path class="cls-21" d="M369.41,473.86a44.81,44.81,0,0,1,25.67,17.82A71.19,71.19,0,0,0,369.41,473.86Z" transform="translate(-126.46 -19.33)"/><path class="cls-21" d="M422.35,457.25A51.33,51.33,0,0,0,414,485.39,179.53,179.53,0,0,1,422.35,457.25Z" transform="translate(-126.46 -19.33)"/><path class="cls-21" d="M448.29,472.08a51.29,51.29,0,0,0-24.22,16.55A179.93,179.93,0,0,1,448.29,472.08Z" transform="translate(-126.46 -19.33)"/><path class="cls-20" d="M184.63,495.07s-9.88-75.85-3.19-99.56c0,0,14.54,44.93,12.73,99.55Z" transform="translate(-126.46 -19.33)"/><path class="cls-20" d="M180.64,455.7a173.31,173.31,0,0,1,8.43,39.36h0c3.26-21-8.82-44.85-8.83-44.86C180.37,452.05,180.5,453.88,180.64,455.7Z" transform="translate(-126.46 -19.33)"/><path class="cls-20" d="M192.44,495.06h1.73c.17-5,.19-9.94.11-14.76A74.87,74.87,0,0,0,192.44,495.06Z" transform="translate(-126.46 -19.33)"/><path class="cls-20" d="M204.2,495.07s3.47-15.84,26.8-22.44c0,0-4.63,16.75-15.11,22.43Z" transform="translate(-126.46 -19.33)"/><path class="cls-20" d="M177,495.06s-8.85-19.79-34.24-22.43c0,0,5.12,17.92,23.29,22.44Z" transform="translate(-126.46 -19.33)"/><path class="cls-20" d="M204.2,495.06h2.5c5.82-3.81,9.8-15.76,9.82-15.83C206.13,486.4,204.21,495,204.2,495.06Z" transform="translate(-126.46 -19.33)"/><path class="cls-20" d="M194.22,495.07S190.41,458,225,430c0,0,.52,36.17-20.76,65.05Z" transform="translate(-126.46 -19.33)"/><path class="cls-20" d="M153.71,475.08c.13.1,17.58,14.09,23.27,20A41.64,41.64,0,0,0,153.71,475.08Z" transform="translate(-126.46 -19.33)"/><path class="cls-20" d="M174.67,495.07s-16.15-36.73-14.51-75.64c0,0,23.41,21.69,28.91,75.64Z" transform="translate(-126.46 -19.33)"/><path class="cls-21" d="M177.74,448l.56,4.5s9.33,25.13,9.33,36.13S189.74,463,177.74,448Z" transform="translate(-126.46 -19.33)"/><path class="cls-21" d="M149.7,473.86a44.82,44.82,0,0,1,25.68,17.82A71.18,71.18,0,0,0,149.7,473.86Z" transform="translate(-126.46 -19.33)"/><path class="cls-21" d="M202.65,457.25a51.39,51.39,0,0,0-8.33,28.14A180.12,180.12,0,0,1,202.65,457.25Z" transform="translate(-126.46 -19.33)"/><path class="cls-21" d="M228.59,472.08a51.35,51.35,0,0,0-24.23,16.55A180.34,180.34,0,0,1,228.59,472.08Z" transform="translate(-126.46 -19.33)"/><polygon class="cls-15" points="166.57 213.63 265.19 190.33 266.29 191.38 266.29 205.1 166.57 213.63"/></g><g id="boy"><path class="cls-22" d="M511.37,92.47s1.42,4-1.6,10.38c0,0-2.4-5.8-1.74-8.89C508,94,509.41,89.63,511.37,92.47Z" transform="translate(-126.46 -19.33)"/><path class="cls-23" d="M500.21,137.84s-7.07,5-7.2,13.52c0,0-8.13,1.73-21.33-5.74,0,0,8.31-13.28,7.33-14S489.81,137.66,500.21,137.84Z" transform="translate(-126.46 -19.33)"/><path class="cls-24" d="M508.19,91.51s-8.27,19.58-38.41,24.78c0,0-4.53,3.33,5.07,12.4a45.29,45.29,0,0,0,31.47,8.93c1.76-.13,5.25-2.93,6-7.86s1.76-16.34-1.93-26.91c0,0-2.28-8.79-1.85-11.34" transform="translate(-126.46 -19.33)"/><path class="cls-25" d="M485.26,406.05s-20.66-.5-50,8.06c0,0-9,35.15,11.6,65.2,0,0,16.62-1.44,21.59-21.86,3.15-13-7.32-25.1-7.32-25.1l25.76-9.25Z" transform="translate(-126.46 -19.33)"/><path class="cls-26" d="M506.74,85.89s-4.8-4.08-12.8,0a52.63,52.63,0,0,1-16,0c-7.08-1-16.53,6.4-17.87,12.26s-7.2,28.27,18.94,33.43c0,0-14.47-10.8-8.71-15.11,1.78-1.34,5.36-1.33,7.64,2.85l1.25,2.31s-1.78-3.38,1.06-5.69c0,0,8.72.18,13.34-2.66s5-.18,13.15-17.43c0,0,2.49-4.62,4.63-3.38a2.49,2.49,0,0,0,0-3.73Z" transform="translate(-126.46 -19.33)"/><path class="cls-27" d="M503.54,277.12l13.88-.63s34.13,58.46,35.19,84.87c0,0-.53,20-10.13,27.48,0,0-17.34,20-41.21,42.82S486.5,280.8,503.54,277.12Z" transform="translate(-126.46 -19.33)"/><path class="cls-28" d="M442.47,264.3l6.14,73.87L444,449.64s28.12,16.72,52.12,5.87c16.53-57.6,11.2-173.3,7.46-178.39S442.31,260.51,442.47,264.3Z" transform="translate(-126.46 -19.33)"/><path class="cls-29" d="M545.15,182.25l-24.83,27.38s22.52,19.73,49.72,20.26,36.44-10.66,36.44-10.66,35.21-34.67,41.07-52.8c0,0,10-3.22,12.8-20.62,0,0,11.91-8.36,9.24-13.52s-6.93-1.95-6.93-1.95-3.61,1.67-9.42,7.63c-6.4,6.56-10.67,5.52-10.67,5.52s.71-13,6.22-16.19c0,0,14.76-9.58,16-9.58s0-2.49-1.77-2.32-11.2,2-23.47,6.76c0,0-10.49,8.36-13.33,30.05,0,0-2.29,5.69-10.85,13,0,0-24,24.16-34.67,27.54C580.7,192.73,556.17,192,545.15,182.25Z" transform="translate(-126.46 -19.33)"/><path class="cls-30" d="M493.09,150s38.19,26,52.06,26.83-24.23,36.49-24.23,36.49S487.44,158.37,493.09,150Z" transform="translate(-126.46 -19.33)"/><path class="cls-31" d="M520.92,213.32s-5.78-40.66-26.06-62.14c0,0,12.57,9.11,31.15,57.19Z" transform="translate(-126.46 -19.33)"/><path class="cls-30" d="M471.68,144.82S483.81,154,493.09,150c43,47.36,27,126.3,27,126.3s-60.81,5.33-82.14-11.2c-12.8-77.87,11.73-106.68,11.73-106.68S460.34,143.32,471.68,144.82Z" transform="translate(-126.46 -19.33)"/><path class="cls-32" d="M471.68,163.76c2.3.57,8.4,0,12.4,15.47,3.46,16.53-1.8,45-2.67,59.2s1.71,26.4,7.52,42.67-11.52,27.2-11.52,27.2-49.6-47.2-28-124.81C454,166.83,461.94,162.69,471.68,163.76Z" transform="translate(-126.46 -19.33)"/><path class="cls-33" d="M501.27,431.66s14-82.29,2.27-154.54c0,0,9.6,18.91,6.94,146.92Z" transform="translate(-126.46 -19.33)"/><path class="cls-25" d="M475.77,307.41s12.57-3.14,14.44-21.63c0,0,3.49,16.36-13.69,23.41Z" transform="translate(-126.46 -19.33)"/><path class="cls-29" d="M488.24,457.38s-16.81,4.49-21.2.69,0,27.32,0,27.32h21.2S492.14,464.06,488.24,457.38Z" transform="translate(-126.46 -19.33)"/><path class="cls-34" d="M450.22,454.85S444,474.53,444,505.12c0,0,31.22,18.48,65.85,7.11,0,0,3.26-16.36-14.95-26.84-11.57-6.66-26.14,0-26.14,0L467,458.07Z" transform="translate(-126.46 -19.33)"/><path class="cls-25" d="M444,448.92s24.53,15.3,52.09,6.59c0,0-19,14-52.12-3.73Z" transform="translate(-126.46 -19.33)"/></g></svg>